<svg width="37" height="37" viewBox="0 0 37 37" fill="none" xmlns="http://www.w3.org/2000/svg">
<path d="M6.50186 36.3076H28.2609C29.9088 36.3076 31.2447 34.7193 31.2447 32.6735V2.98385C31.2447 1.3359 29.9088 0 28.2609 0H6.50186C6.08987 0 5.75586 0.334012 5.75586 0.745998V34.9114C5.75593 35.3233 6.08987 36.3076 6.50186 36.3076Z" fill="#282828"/>
<path d="M23.3266 18.6811C25.9938 16.0138 25.9938 11.6893 23.3266 9.02201C20.6593 6.35472 16.3347 6.35472 13.6674 9.02201C11.0002 11.6893 11.0002 16.0138 13.6674 18.6811C16.3347 21.3484 20.6593 21.3484 23.3266 18.6811Z" fill="#F1CD65"/>
<path d="M28.2609 35.6572H6.50186C6.08987 35.6572 5.75586 35.3232 5.75586 34.9112V36.254C5.75586 36.6659 6.08987 37 6.50186 37H28.2609C29.9088 37 31.2447 35.6641 31.2447 34.0161V32.6733C31.2448 34.3213 29.9088 35.6572 28.2609 35.6572Z" fill="black"/>
<path d="M25.9057 26.4649C25.9057 26.1553 25.6547 25.9043 25.3451 25.9043H11.6563C11.3466 25.9043 11.0957 26.1553 11.0957 26.4649C11.0957 26.7744 11.3467 27.0254 11.6563 27.0254H25.3451C25.6548 27.0254 25.9057 26.7744 25.9057 26.4649Z" fill="#EDF3FC"/>
<path d="M13.6738 29.4424C13.3642 29.4424 13.1133 29.6934 13.1133 30.0029C13.1133 30.3125 13.3642 30.5635 13.6738 30.5635H23.3266C23.6362 30.5635 23.8871 30.3125 23.8871 30.0029C23.8871 29.6934 23.6362 29.4424 23.3266 29.4424H13.6738Z" fill="#EDF3FC"/>
<path d="M18.4999 6.46045C14.4248 6.46045 11.1094 9.77578 11.1094 13.851C11.1094 17.9262 14.4248 21.2415 18.4999 21.2415C22.575 21.2415 25.8904 17.9261 25.8904 13.851C25.8904 9.77585 22.575 6.46045 18.4999 6.46045ZM18.4999 20.1226C17.7344 20.1226 16.9047 18.764 16.4896 16.6876H20.5103C20.095 18.764 19.2654 20.1226 18.4999 20.1226ZM16.3163 15.5686C16.2551 15.0268 16.2207 14.452 16.2207 13.8511C16.2207 13.2501 16.2551 12.6753 16.3163 12.1335H20.6835C20.7447 12.6753 20.7791 13.2501 20.7791 13.8511C20.7791 14.452 20.7447 15.0268 20.6835 15.5686H16.3163ZM12.2283 13.851C12.2283 13.2554 12.3135 12.6797 12.4694 12.1334H15.1865C15.131 12.6813 15.1018 13.2558 15.1018 13.851C15.1018 14.4462 15.131 15.0207 15.1865 15.5685H12.4693C12.3135 15.0223 12.2283 14.4466 12.2283 13.851ZM18.4999 7.57941C19.2654 7.57941 20.095 8.93808 20.5103 11.0145H16.4896C16.9047 8.93808 17.7344 7.57941 18.4999 7.57941ZM21.8134 12.1334H24.5305C24.6863 12.6797 24.7716 13.2554 24.7716 13.851C24.7716 14.4466 24.6863 15.0223 24.5305 15.5685H21.8134C21.8689 15.0207 21.8981 14.4462 21.8981 13.851C21.8981 13.2558 21.8689 12.6813 21.8134 12.1334ZM24.0906 11.0145H21.6569C21.4332 9.77426 21.0636 8.71947 20.5885 7.93828C22.1113 8.47789 23.3648 9.58984 24.0906 11.0145ZM16.4114 7.93835C15.9362 8.71954 15.5666 9.77433 15.343 11.0146H12.9092C13.635 9.58984 14.8884 8.47789 16.4114 7.93835ZM12.9092 16.6875H15.343C15.5666 17.9277 15.9363 18.9824 16.4114 19.7637C14.8884 19.2241 13.635 18.1122 12.9092 16.6875ZM20.5884 19.7637C21.0636 18.9825 21.4332 17.9277 21.6568 16.6875H24.0905C23.3648 18.1122 22.1113 19.2241 20.5884 19.7637Z" fill="#E69644"/>
</svg>
