<svg width="19" height="18" viewBox="0 0 19 18" fill="none" xmlns="http://www.w3.org/2000/svg">
<path fill-rule="evenodd" clip-rule="evenodd" d="M15.281 13.5552C15.2013 13.6347 15.1052 13.7362 15.0033 13.8437C14.749 14.1135 14.4314 14.449 14.2323 14.585C13.1849 15.3007 11.7836 14.9583 10.7924 14.5453C9.48485 14.0005 8.06127 12.9962 6.78305 11.7179C5.50363 10.4394 4.49951 9.01536 3.9547 7.70854C3.5422 6.71712 3.199 5.31555 3.91486 4.26789C4.0508 4.06867 4.38701 3.75153 4.6565 3.49679C4.76431 3.39521 4.86509 3.29923 4.94478 3.2198C5.08626 3.07903 5.27772 3 5.4773 3C5.67688 3 5.86834 3.07903 6.00981 3.2198L7.93705 5.14647C8.07774 5.28794 8.15672 5.47935 8.15672 5.67887C8.15672 5.87839 8.07774 6.0698 7.93705 6.21127L7.41204 6.73522C7.23671 6.90927 7.12226 7.13528 7.08574 7.37962C7.04921 7.62396 7.09256 7.87356 7.20933 8.09128C7.93144 9.45419 9.04625 10.5688 10.4093 11.2907C10.6269 11.4074 10.8765 11.4507 11.1208 11.4141C11.365 11.3775 11.591 11.263 11.7649 11.0876L12.2886 10.5637C12.4301 10.4229 12.6215 10.3439 12.8211 10.3439C13.0207 10.3439 13.2121 10.4229 13.3536 10.5637L15.281 12.4907C15.4217 12.6321 15.5006 12.8235 15.5006 13.023C15.5006 13.2224 15.4217 13.4138 15.281 13.5552Z" fill="white"/>
</svg>
