<svg width="20" height="20" viewBox="0 0 20 20" fill="none" xmlns="http://www.w3.org/2000/svg">
    <path id="Vector"
          d="M14.7047 10.4554C14.6967 9.14395 15.3156 8.15553 16.5654 7.42671C15.8664 6.46521 14.8089 5.93639 13.4149 5.83447C12.095 5.73447 10.6509 6.5729 10.1222 6.5729C9.56338 6.5729 8.28555 5.86908 7.28011 5.86908C5.20515 5.89985 3 7.45748 3 10.6266C3 11.5631 3.17825 12.5304 3.53476 13.5265C4.01144 14.838 5.7299 18.0513 7.52246 17.9994C8.4598 17.9782 9.12275 17.3609 10.3425 17.3609C11.5262 17.3609 12.1391 17.9994 13.1845 17.9994C14.9931 17.9744 16.5474 15.0533 17 13.738C14.5745 12.64 14.7047 10.5227 14.7047 10.4554ZM12.5997 4.59028C13.6152 3.43264 13.523 2.37883 13.493 2C12.5957 2.05 11.5582 2.58652 10.9674 3.24611C10.3165 3.95377 9.93391 4.82874 10.016 5.81524C10.9854 5.88639 11.8707 5.40756 12.5997 4.59028Z"
          fill="black"/>
</svg>
