<svg width="117" height="92" viewBox="0 0 117 92" fill="none" xmlns="http://www.w3.org/2000/svg">
<path d="M50.3459 72.2315C48.7371 73.8514 47.6417 75.915 47.1982 78.1613C46.7547 80.4077 46.983 82.7359 47.8542 84.8517C48.7255 86.9674 50.2006 88.7757 52.093 90.048C53.9854 91.3202 56.2101 91.9993 58.486 91.9993C60.7619 91.9993 62.9867 91.3202 64.8791 90.048C66.7715 88.7757 68.2466 86.9674 69.1178 84.8517C69.9891 82.7359 70.2174 80.4077 69.7739 78.1613C69.3304 75.915 68.235 73.8514 66.6262 72.2315C64.467 70.0595 61.539 68.8394 58.486 68.8394C55.4331 68.8394 52.5051 70.0595 50.3459 72.2315Z" fill="white"/>
<path d="M58.4857 44.6911C53.821 44.6781 49.2001 45.5967 44.8906 47.3936C40.5812 49.1905 36.6689 51.83 33.3804 55.1593C32.1148 56.4328 31.4038 58.1601 31.4038 59.9612C31.4038 61.7622 32.1148 63.4896 33.3804 64.7631C34.6459 66.0366 36.3624 66.7521 38.1522 66.7521C39.9419 66.7521 41.6584 66.0366 42.924 64.7631C47.0551 60.6065 52.6578 58.2713 58.4997 58.2713C64.3416 58.2713 69.9443 60.6065 74.0754 64.7631C75.341 66.0366 77.0575 66.7521 78.8472 66.7521C80.637 66.7521 82.3535 66.0366 83.6191 64.7631C84.8846 63.4896 85.5956 61.7622 85.5956 59.9612C85.5956 58.1601 84.8846 56.4328 83.6191 55.1593C80.3279 51.8256 76.4112 49.1835 72.0966 47.3864C67.7819 45.5893 63.1553 44.6731 58.4857 44.6911Z" fill="white"/>
<path d="M58.4863 22.3706C50.9076 22.3499 43.4001 23.8421 36.3984 26.7609C29.3966 29.6798 23.0398 33.9672 17.6958 39.375C17.0691 40.0056 16.5721 40.7543 16.2329 41.5782C15.8938 42.4021 15.7192 43.2852 15.7192 44.177C15.7192 45.0688 15.8938 45.9518 16.2329 46.7758C16.5721 47.5997 17.0691 48.3483 17.6958 48.9789C18.3224 49.6095 19.0664 50.1097 19.8851 50.451C20.7039 50.7923 21.5814 50.9679 22.4676 50.9679C23.3538 50.9679 24.2313 50.7923 25.0501 50.451C25.8688 50.1097 26.6128 49.6095 27.2394 48.9789C35.531 40.637 46.7757 35.9507 58.5003 35.9507C70.225 35.9507 81.4697 40.637 89.7613 48.9789C91.0269 50.2524 92.7433 50.9679 94.5331 50.9679C96.3229 50.9679 98.0393 50.2524 99.3049 48.9789C100.57 47.7053 101.281 45.978 101.281 44.177C101.281 42.3759 100.57 40.6486 99.3049 39.375C93.958 33.9633 87.5966 29.6736 80.5897 26.7546C73.5828 23.8357 66.0698 22.3455 58.4863 22.3706Z" fill="white"/>
<path d="M114.99 23.5569C107.57 16.0884 98.7606 10.1639 89.0651 6.12178C79.3696 2.07971 68.9778 -0.000732422 58.4832 -0.000732422C47.9886 -0.000732422 37.5967 2.07971 27.9012 6.12178C18.2057 10.1639 9.39644 16.0884 1.97655 23.5569C0.710986 24.8305 0 26.5578 0 28.3589C0 30.1599 0.710986 31.8872 1.97655 33.1608C3.24211 34.4343 4.95858 35.1498 6.74835 35.1498C8.53813 35.1498 10.2546 34.4343 11.5202 33.1608C17.689 26.9511 25.013 22.0252 33.0739 18.6645C41.1348 15.3037 49.7747 13.574 58.5 13.574C67.2254 13.574 75.8652 15.3037 83.9261 18.6645C91.987 22.0252 99.3111 26.9511 105.48 33.1608C106.106 33.7914 106.85 34.2916 107.669 34.6329C108.488 34.9742 109.365 35.1498 110.252 35.1498C111.138 35.1498 112.015 34.9742 112.834 34.6329C113.653 34.2916 114.397 33.7914 115.023 33.1608C115.65 32.5302 116.147 31.7816 116.486 30.9576C116.825 30.1337 117 29.2507 117 28.3589C117 27.4671 116.825 26.584 116.486 25.7601C116.147 24.9362 115.65 24.1875 115.023 23.5569H114.99Z" fill="white"/>
</svg>
